<?xml version="1.0" standalone="no"?>
<!DOCTYPE svg PUBLIC "-//W3C//DTD SVG 1.1//EN" "http://www.w3.org/Graphics/SVG/1.1/DTD/svg11.dtd">
<svg width="408mm" height="612mm" viewBox="0 -602 408 612" xmlns="http://www.w3.org/2000/svg" version="1.1">
<title>OpenSCAD Model</title>
<path d="
M 75.294,-500.014 L 75.5853,-500.058 L 75.8708,-500.129 L 76.148,-500.228 L 76.4142,-500.354 L 76.6667,-500.506
 L 76.9032,-500.681 L 77.1213,-500.879 L 77.319,-501.097 L 77.4944,-501.333 L 77.6458,-501.586 L 77.7716,-501.852
 L 77.8708,-502.129 L 77.9424,-502.415 L 77.9855,-502.706 L 78,-503 L 78,-599 L 77.9855,-599.294
 L 77.9424,-599.585 L 77.8708,-599.871 L 77.7716,-600.148 L 77.6458,-600.414 L 77.4944,-600.667 L 77.319,-600.903
 L 77.1213,-601.121 L 76.9032,-601.319 L 76.6667,-601.494 L 76.4142,-601.646 L 76.148,-601.772 L 75.8708,-601.871
 L 75.5853,-601.942 L 75.294,-601.986 L 75,-602 L 3,-602 L 2.70595,-601.986 L 2.41472,-601.942
 L 2.12914,-601.871 L 1.85194,-601.772 L 1.5858,-601.646 L 1.33328,-601.494 L 1.09682,-601.319 L 0.878677,-601.121
 L 0.680954,-600.903 L 0.505585,-600.667 L 0.354233,-600.414 L 0.228348,-600.148 L 0.129166,-599.871 L 0.0576324,-599.585
 L 0.0144348,-599.294 L 0,-599 L 0,-503 L 0.0144348,-502.706 L 0.0576324,-502.415 L 0.129166,-502.129
 L 0.228348,-501.852 L 0.354233,-501.586 L 0.505585,-501.333 L 0.680954,-501.097 L 0.878677,-500.879 L 1.09682,-500.681
 L 1.33328,-500.506 L 1.5858,-500.354 L 1.85194,-500.228 L 2.12914,-500.129 L 2.41472,-500.058 L 2.70595,-500.014
 L 3,-500 L 75,-500 z
M 37,-584 L 36.7059,-584.014 L 36.4147,-584.058 L 36.1291,-584.129 L 35.8519,-584.228 L 35.5858,-584.354
 L 35.3333,-584.506 L 35.0968,-584.681 L 34.8787,-584.879 L 34.681,-585.097 L 34.5056,-585.333 L 34.3542,-585.586
 L 34.2283,-585.852 L 34.1292,-586.129 L 34.0576,-586.415 L 34.0144,-586.706 L 34,-587 L 34,-597
 L 34.0144,-597.294 L 34.0576,-597.585 L 34.1292,-597.871 L 34.2283,-598.148 L 34.3542,-598.414 L 34.5056,-598.667
 L 34.681,-598.903 L 34.8787,-599.121 L 35.0968,-599.319 L 35.3333,-599.494 L 35.5858,-599.646 L 35.8519,-599.772
 L 36.1291,-599.871 L 36.4147,-599.942 L 36.7059,-599.986 L 37,-600 L 41,-600 L 41.294,-599.986
 L 41.5853,-599.942 L 41.8708,-599.871 L 42.148,-599.772 L 42.4142,-599.646 L 42.6667,-599.494 L 42.9032,-599.319
 L 43.1213,-599.121 L 43.319,-598.903 L 43.4944,-598.667 L 43.6458,-598.414 L 43.7716,-598.148 L 43.8708,-597.871
 L 43.9424,-597.585 L 43.9855,-597.294 L 44,-597 L 44,-587 L 43.9855,-586.706 L 43.9424,-586.415
 L 43.8708,-586.129 L 43.7716,-585.852 L 43.6458,-585.586 L 43.4944,-585.333 L 43.319,-585.097 L 43.1213,-584.879
 L 42.9032,-584.681 L 42.6667,-584.506 L 42.4142,-584.354 L 42.148,-584.228 L 41.8708,-584.129 L 41.5853,-584.058
 L 41.294,-584.014 L 41,-584 z
M 9.5,-570 L 9.35297,-570.007 L 9.20735,-570.029 L 9.06456,-570.065 L 8.92596,-570.114 L 8.79289,-570.177
 L 8.66664,-570.253 L 8.5484,-570.34 L 8.43933,-570.439 L 8.34047,-570.548 L 8.25279,-570.667 L 8.17711,-570.793
 L 8.11417,-570.926 L 8.06458,-571.065 L 8.02881,-571.207 L 8.00722,-571.353 L 8,-571.5 L 8,-586.95
 L 8.00722,-587.097 L 8.02881,-587.243 L 8.06458,-587.385 L 8.11417,-587.524 L 8.17711,-587.657 L 8.25279,-587.783
 L 8.34047,-587.902 L 8.43933,-588.011 L 8.5484,-588.11 L 8.66664,-588.197 L 8.79289,-588.273 L 8.92596,-588.336
 L 9.06456,-588.385 L 9.20735,-588.421 L 9.35297,-588.443 L 9.5,-588.45 L 9.95,-588.45 L 10.097,-588.443
 L 10.2426,-588.421 L 10.3854,-588.385 L 10.524,-588.336 L 10.6571,-588.273 L 10.7833,-588.197 L 10.9016,-588.11
 L 11.0107,-588.011 L 11.1095,-587.902 L 11.1972,-587.783 L 11.2729,-587.657 L 11.3358,-587.524 L 11.3854,-587.385
 L 11.4212,-587.243 L 11.4428,-587.097 L 11.45,-586.95 L 11.45,-571.5 L 11.4428,-571.353 L 11.4212,-571.207
 L 11.3854,-571.065 L 11.3358,-570.926 L 11.2729,-570.793 L 11.1972,-570.667 L 11.1095,-570.548 L 11.0107,-570.439
 L 10.9016,-570.34 L 10.7833,-570.253 L 10.6571,-570.177 L 10.524,-570.114 L 10.3854,-570.065 L 10.2426,-570.029
 L 10.097,-570.007 L 9.95,-570 z
M 68.05,-570 L 67.903,-570.007 L 67.7574,-570.029 L 67.6146,-570.065 L 67.476,-570.114 L 67.3429,-570.177
 L 67.2166,-570.253 L 67.0984,-570.34 L 66.9893,-570.439 L 66.8905,-570.548 L 66.8028,-570.667 L 66.7271,-570.793
 L 66.6642,-570.926 L 66.6146,-571.065 L 66.5788,-571.207 L 66.5572,-571.353 L 66.55,-571.5 L 66.55,-586.95
 L 66.5572,-587.097 L 66.5788,-587.243 L 66.6146,-587.385 L 66.6642,-587.524 L 66.7271,-587.657 L 66.8028,-587.783
 L 66.8905,-587.902 L 66.9893,-588.011 L 67.0984,-588.11 L 67.2166,-588.197 L 67.3429,-588.273 L 67.476,-588.336
 L 67.6146,-588.385 L 67.7574,-588.421 L 67.903,-588.443 L 68.05,-588.45 L 68.5,-588.45 L 68.647,-588.443
 L 68.7926,-588.421 L 68.9354,-588.385 L 69.074,-588.336 L 69.2071,-588.273 L 69.3333,-588.197 L 69.4516,-588.11
 L 69.5607,-588.011 L 69.6595,-587.902 L 69.7472,-587.783 L 69.8229,-587.657 L 69.8858,-587.524 L 69.9354,-587.385
 L 69.9712,-587.243 L 69.9928,-587.097 L 70,-586.95 L 70,-571.5 L 69.9928,-571.353 L 69.9712,-571.207
 L 69.9354,-571.065 L 69.8858,-570.926 L 69.8229,-570.793 L 69.7472,-570.667 L 69.6595,-570.548 L 69.5607,-570.439
 L 69.4516,-570.34 L 69.3333,-570.253 L 69.2071,-570.177 L 69.074,-570.114 L 68.9354,-570.065 L 68.7926,-570.029
 L 68.647,-570.007 L 68.5,-570 z
M 9.5,-524 L 9.35297,-524.007 L 9.20735,-524.029 L 9.06456,-524.065 L 8.92596,-524.114 L 8.79289,-524.177
 L 8.66664,-524.253 L 8.5484,-524.34 L 8.43933,-524.439 L 8.34047,-524.548 L 8.25279,-524.667 L 8.17711,-524.793
 L 8.11417,-524.926 L 8.06458,-525.065 L 8.02881,-525.207 L 8.00722,-525.353 L 8,-525.5 L 8,-540.95
 L 8.00722,-541.097 L 8.02881,-541.243 L 8.06458,-541.385 L 8.11417,-541.524 L 8.17711,-541.657 L 8.25279,-541.783
 L 8.34047,-541.902 L 8.43933,-542.011 L 8.5484,-542.11 L 8.66664,-542.197 L 8.79289,-542.273 L 8.92596,-542.336
 L 9.06456,-542.385 L 9.20735,-542.421 L 9.35297,-542.443 L 9.5,-542.45 L 9.95,-542.45 L 10.097,-542.443
 L 10.2426,-542.421 L 10.3854,-542.385 L 10.524,-542.336 L 10.6571,-542.273 L 10.7833,-542.197 L 10.9016,-542.11
 L 11.0107,-542.011 L 11.1095,-541.902 L 11.1972,-541.783 L 11.2729,-541.657 L 11.3358,-541.524 L 11.3854,-541.385
 L 11.4212,-541.243 L 11.4428,-541.097 L 11.45,-540.95 L 11.45,-525.5 L 11.4428,-525.353 L 11.4212,-525.207
 L 11.3854,-525.065 L 11.3358,-524.926 L 11.2729,-524.793 L 11.1972,-524.667 L 11.1095,-524.548 L 11.0107,-524.439
 L 10.9016,-524.34 L 10.7833,-524.253 L 10.6571,-524.177 L 10.524,-524.114 L 10.3854,-524.065 L 10.2426,-524.029
 L 10.097,-524.007 L 9.95,-524 z
M 68.05,-524 L 67.903,-524.007 L 67.7574,-524.029 L 67.6146,-524.065 L 67.476,-524.114 L 67.3429,-524.177
 L 67.2166,-524.253 L 67.0984,-524.34 L 66.9893,-524.439 L 66.8905,-524.548 L 66.8028,-524.667 L 66.7271,-524.793
 L 66.6642,-524.926 L 66.6146,-525.065 L 66.5788,-525.207 L 66.5572,-525.353 L 66.55,-525.5 L 66.55,-540.95
 L 66.5572,-541.097 L 66.5788,-541.243 L 66.6146,-541.385 L 66.6642,-541.524 L 66.7271,-541.657 L 66.8028,-541.783
 L 66.8905,-541.902 L 66.9893,-542.011 L 67.0984,-542.11 L 67.2166,-542.197 L 67.3429,-542.273 L 67.476,-542.336
 L 67.6146,-542.385 L 67.7574,-542.421 L 67.903,-542.443 L 68.05,-542.45 L 68.5,-542.45 L 68.647,-542.443
 L 68.7926,-542.421 L 68.9354,-542.385 L 69.074,-542.336 L 69.2071,-542.273 L 69.3333,-542.197 L 69.4516,-542.11
 L 69.5607,-542.011 L 69.6595,-541.902 L 69.7472,-541.783 L 69.8229,-541.657 L 69.8858,-541.524 L 69.9354,-541.385
 L 69.9712,-541.243 L 69.9928,-541.097 L 70,-540.95 L 70,-525.5 L 69.9928,-525.353 L 69.9712,-525.207
 L 69.9354,-525.065 L 69.8858,-524.926 L 69.8229,-524.793 L 69.7472,-524.667 L 69.6595,-524.548 L 69.5607,-524.439
 L 69.4516,-524.34 L 69.3333,-524.253 L 69.2071,-524.177 L 69.074,-524.114 L 68.9354,-524.065 L 68.7926,-524.029
 L 68.647,-524.007 L 68.5,-524 z
M 75.294,-382.014 L 75.5853,-382.058 L 75.8708,-382.129 L 76.148,-382.228 L 76.4142,-382.354 L 76.6667,-382.506
 L 76.9032,-382.681 L 77.1213,-382.879 L 77.319,-383.097 L 77.4944,-383.333 L 77.6458,-383.586 L 77.7716,-383.852
 L 77.8708,-384.129 L 77.9424,-384.415 L 77.9855,-384.706 L 78,-385 L 78,-481 L 77.9855,-481.294
 L 77.9424,-481.585 L 77.8708,-481.871 L 77.7716,-482.148 L 77.6458,-482.414 L 77.4944,-482.667 L 77.319,-482.903
 L 77.1213,-483.121 L 76.9032,-483.319 L 76.6667,-483.494 L 76.4142,-483.646 L 76.148,-483.772 L 75.8708,-483.871
 L 75.5853,-483.942 L 75.294,-483.986 L 75,-484 L 3,-484 L 2.70595,-483.986 L 2.41472,-483.942
 L 2.12914,-483.871 L 1.85194,-483.772 L 1.5858,-483.646 L 1.33328,-483.494 L 1.09682,-483.319 L 0.878677,-483.121
 L 0.680954,-482.903 L 0.505585,-482.667 L 0.354233,-482.414 L 0.228348,-482.148 L 0.129166,-481.871 L 0.0576324,-481.585
 L 0.0144348,-481.294 L 0,-481 L 0,-385 L 0.0144348,-384.706 L 0.0576324,-384.415 L 0.129166,-384.129
 L 0.228348,-383.852 L 0.354233,-383.586 L 0.505585,-383.333 L 0.680954,-383.097 L 0.878677,-382.879 L 1.09682,-382.681
 L 1.33328,-382.506 L 1.5858,-382.354 L 1.85194,-382.228 L 2.12914,-382.129 L 2.41472,-382.058 L 2.70595,-382.014
 L 3,-382 L 75,-382 z
M 37,-466 L 36.7059,-466.014 L 36.4147,-466.058 L 36.1291,-466.129 L 35.8519,-466.228 L 35.5858,-466.354
 L 35.3333,-466.506 L 35.0968,-466.681 L 34.8787,-466.879 L 34.681,-467.097 L 34.5056,-467.333 L 34.3542,-467.586
 L 34.2283,-467.852 L 34.1292,-468.129 L 34.0576,-468.415 L 34.0144,-468.706 L 34,-469 L 34,-479
 L 34.0144,-479.294 L 34.0576,-479.585 L 34.1292,-479.871 L 34.2283,-480.148 L 34.3542,-480.414 L 34.5056,-480.667
 L 34.681,-480.903 L 34.8787,-481.121 L 35.0968,-481.319 L 35.3333,-481.494 L 35.5858,-481.646 L 35.8519,-481.772
 L 36.1291,-481.871 L 36.4147,-481.942 L 36.7059,-481.986 L 37,-482 L 41,-482 L 41.294,-481.986
 L 41.5853,-481.942 L 41.8708,-481.871 L 42.148,-481.772 L 42.4142,-481.646 L 42.6667,-481.494 L 42.9032,-481.319
 L 43.1213,-481.121 L 43.319,-480.903 L 43.4944,-480.667 L 43.6458,-480.414 L 43.7716,-480.148 L 43.8708,-479.871
 L 43.9424,-479.585 L 43.9855,-479.294 L 44,-479 L 44,-469 L 43.9855,-468.706 L 43.9424,-468.415
 L 43.8708,-468.129 L 43.7716,-467.852 L 43.6458,-467.586 L 43.4944,-467.333 L 43.319,-467.097 L 43.1213,-466.879
 L 42.9032,-466.681 L 42.6667,-466.506 L 42.4142,-466.354 L 42.148,-466.228 L 41.8708,-466.129 L 41.5853,-466.058
 L 41.294,-466.014 L 41,-466 z
M 9.5,-452 L 9.35297,-452.007 L 9.20735,-452.029 L 9.06456,-452.065 L 8.92596,-452.114 L 8.79289,-452.177
 L 8.66664,-452.253 L 8.5484,-452.34 L 8.43933,-452.439 L 8.34047,-452.548 L 8.25279,-452.667 L 8.17711,-452.793
 L 8.11417,-452.926 L 8.06458,-453.065 L 8.02881,-453.207 L 8.00722,-453.353 L 8,-453.5 L 8,-468.95
 L 8.00722,-469.097 L 8.02881,-469.243 L 8.06458,-469.385 L 8.11417,-469.524 L 8.17711,-469.657 L 8.25279,-469.783
 L 8.34047,-469.902 L 8.43933,-470.011 L 8.5484,-470.11 L 8.66664,-470.197 L 8.79289,-470.273 L 8.92596,-470.336
 L 9.06456,-470.385 L 9.20735,-470.421 L 9.35297,-470.443 L 9.5,-470.45 L 9.95,-470.45 L 10.097,-470.443
 L 10.2426,-470.421 L 10.3854,-470.385 L 10.524,-470.336 L 10.6571,-470.273 L 10.7833,-470.197 L 10.9016,-470.11
 L 11.0107,-470.011 L 11.1095,-469.902 L 11.1972,-469.783 L 11.2729,-469.657 L 11.3358,-469.524 L 11.3854,-469.385
 L 11.4212,-469.243 L 11.4428,-469.097 L 11.45,-468.95 L 11.45,-453.5 L 11.4428,-453.353 L 11.4212,-453.207
 L 11.3854,-453.065 L 11.3358,-452.926 L 11.2729,-452.793 L 11.1972,-452.667 L 11.1095,-452.548 L 11.0107,-452.439
 L 10.9016,-452.34 L 10.7833,-452.253 L 10.6571,-452.177 L 10.524,-452.114 L 10.3854,-452.065 L 10.2426,-452.029
 L 10.097,-452.007 L 9.95,-452 z
M 68.05,-452 L 67.903,-452.007 L 67.7574,-452.029 L 67.6146,-452.065 L 67.476,-452.114 L 67.3429,-452.177
 L 67.2166,-452.253 L 67.0984,-452.34 L 66.9893,-452.439 L 66.8905,-452.548 L 66.8028,-452.667 L 66.7271,-452.793
 L 66.6642,-452.926 L 66.6146,-453.065 L 66.5788,-453.207 L 66.5572,-453.353 L 66.55,-453.5 L 66.55,-468.95
 L 66.5572,-469.097 L 66.5788,-469.243 L 66.6146,-469.385 L 66.6642,-469.524 L 66.7271,-469.657 L 66.8028,-469.783
 L 66.8905,-469.902 L 66.9893,-470.011 L 67.0984,-470.11 L 67.2166,-470.197 L 67.3429,-470.273 L 67.476,-470.336
 L 67.6146,-470.385 L 67.7574,-470.421 L 67.903,-470.443 L 68.05,-470.45 L 68.5,-470.45 L 68.647,-470.443
 L 68.7926,-470.421 L 68.9354,-470.385 L 69.074,-470.336 L 69.2071,-470.273 L 69.3333,-470.197 L 69.4516,-470.11
 L 69.5607,-470.011 L 69.6595,-469.902 L 69.7472,-469.783 L 69.8229,-469.657 L 69.8858,-469.524 L 69.9354,-469.385
 L 69.9712,-469.243 L 69.9928,-469.097 L 70,-468.95 L 70,-453.5 L 69.9928,-453.353 L 69.9712,-453.207
 L 69.9354,-453.065 L 69.8858,-452.926 L 69.8229,-452.793 L 69.7472,-452.667 L 69.6595,-452.548 L 69.5607,-452.439
 L 69.4516,-452.34 L 69.3333,-452.253 L 69.2071,-452.177 L 69.074,-452.114 L 68.9354,-452.065 L 68.7926,-452.029
 L 68.647,-452.007 L 68.5,-452 z
M 68.05,-406 L 67.903,-406.007 L 67.7574,-406.029 L 67.6146,-406.065 L 67.476,-406.114 L 67.3429,-406.177
 L 67.2166,-406.253 L 67.0984,-406.34 L 66.9893,-406.439 L 66.8905,-406.548 L 66.8028,-406.667 L 66.7271,-406.793
 L 66.6642,-406.926 L 66.6146,-407.065 L 66.5788,-407.207 L 66.5572,-407.353 L 66.55,-407.5 L 66.55,-422.95
 L 66.5572,-423.097 L 66.5788,-423.243 L 66.6146,-423.385 L 66.6642,-423.524 L 66.7271,-423.657 L 66.8028,-423.783
 L 66.8905,-423.902 L 66.9893,-424.011 L 67.0984,-424.11 L 67.2166,-424.197 L 67.3429,-424.273 L 67.476,-424.336
 L 67.6146,-424.385 L 67.7574,-424.421 L 67.903,-424.443 L 68.05,-424.45 L 68.5,-424.45 L 68.647,-424.443
 L 68.7926,-424.421 L 68.9354,-424.385 L 69.074,-424.336 L 69.2071,-424.273 L 69.3333,-424.197 L 69.4516,-424.11
 L 69.5607,-424.011 L 69.6595,-423.902 L 69.7472,-423.783 L 69.8229,-423.657 L 69.8858,-423.524 L 69.9354,-423.385
 L 69.9712,-423.243 L 69.9928,-423.097 L 70,-422.95 L 70,-407.5 L 69.9928,-407.353 L 69.9712,-407.207
 L 69.9354,-407.065 L 69.8858,-406.926 L 69.8229,-406.793 L 69.7472,-406.667 L 69.6595,-406.548 L 69.5607,-406.439
 L 69.4516,-406.34 L 69.3333,-406.253 L 69.2071,-406.177 L 69.074,-406.114 L 68.9354,-406.065 L 68.7926,-406.029
 L 68.647,-406.007 L 68.5,-406 z
M 9.5,-406 L 9.35297,-406.007 L 9.20735,-406.029 L 9.06456,-406.065 L 8.92596,-406.114 L 8.79289,-406.177
 L 8.66664,-406.253 L 8.5484,-406.34 L 8.43933,-406.439 L 8.34047,-406.548 L 8.25279,-406.667 L 8.17711,-406.793
 L 8.11417,-406.926 L 8.06458,-407.065 L 8.02881,-407.207 L 8.00722,-407.353 L 8,-407.5 L 8,-422.95
 L 8.00722,-423.097 L 8.02881,-423.243 L 8.06458,-423.385 L 8.11417,-423.524 L 8.17711,-423.657 L 8.25279,-423.783
 L 8.34047,-423.902 L 8.43933,-424.011 L 8.5484,-424.11 L 8.66664,-424.197 L 8.79289,-424.273 L 8.92596,-424.336
 L 9.06456,-424.385 L 9.20735,-424.421 L 9.35297,-424.443 L 9.5,-424.45 L 9.95,-424.45 L 10.097,-424.443
 L 10.2426,-424.421 L 10.3854,-424.385 L 10.524,-424.336 L 10.6571,-424.273 L 10.7833,-424.197 L 10.9016,-424.11
 L 11.0107,-424.011 L 11.1095,-423.902 L 11.1972,-423.783 L 11.2729,-423.657 L 11.3358,-423.524 L 11.3854,-423.385
 L 11.4212,-423.243 L 11.4428,-423.097 L 11.45,-422.95 L 11.45,-407.5 L 11.4428,-407.353 L 11.4212,-407.207
 L 11.3854,-407.065 L 11.3358,-406.926 L 11.2729,-406.793 L 11.1972,-406.667 L 11.1095,-406.548 L 11.0107,-406.439
 L 10.9016,-406.34 L 10.7833,-406.253 L 10.6571,-406.177 L 10.524,-406.114 L 10.3854,-406.065 L 10.2426,-406.029
 L 10.097,-406.007 L 9.95,-406 z
M 154.196,-444.01 L 154.39,-444.038 L 154.581,-444.086 L 154.765,-444.152 L 154.943,-444.236 L 155.111,-444.337
 L 155.269,-444.454 L 155.414,-444.586 L 155.546,-444.731 L 155.663,-444.889 L 155.764,-445.057 L 155.848,-445.235
 L 155.914,-445.419 L 155.962,-445.61 L 155.99,-445.804 L 156,-446 L 156,-458 L 155.99,-458.196
 L 155.962,-458.39 L 155.914,-458.581 L 155.848,-458.765 L 155.764,-458.943 L 155.663,-459.111 L 155.546,-459.269
 L 155.414,-459.414 L 155.269,-459.546 L 155.111,-459.663 L 154.943,-459.764 L 154.765,-459.848 L 154.581,-459.914
 L 154.39,-459.962 L 154.196,-459.99 L 154,-460 L 96,-460 L 95.804,-459.99 L 95.6098,-459.962
 L 95.4194,-459.914 L 95.2346,-459.848 L 95.0572,-459.764 L 94.8889,-459.663 L 94.7312,-459.546 L 94.5858,-459.414
 L 94.454,-459.269 L 94.3371,-459.111 L 94.2361,-458.943 L 94.1522,-458.765 L 94.0861,-458.581 L 94.0384,-458.39
 L 94.0096,-458.196 L 94,-458 L 94,-446 L 94.0096,-445.804 L 94.0384,-445.61 L 94.0861,-445.419
 L 94.1522,-445.235 L 94.2361,-445.057 L 94.3371,-444.889 L 94.454,-444.731 L 94.5858,-444.586 L 94.7312,-444.454
 L 94.8889,-444.337 L 95.0572,-444.236 L 95.2346,-444.152 L 95.4194,-444.086 L 95.6098,-444.038 L 95.804,-444.01
 L 96,-444 L 154,-444 z
M 123,-446 L 122.706,-446.014 L 122.415,-446.058 L 122.129,-446.129 L 121.852,-446.228 L 121.586,-446.354
 L 121.333,-446.506 L 121.097,-446.681 L 120.879,-446.879 L 120.681,-447.097 L 120.506,-447.333 L 120.354,-447.586
 L 120.228,-447.852 L 120.129,-448.129 L 120.058,-448.415 L 120.014,-448.706 L 120,-449 L 120,-455
 L 120.014,-455.294 L 120.058,-455.585 L 120.129,-455.871 L 120.228,-456.148 L 120.354,-456.414 L 120.506,-456.667
 L 120.681,-456.903 L 120.879,-457.121 L 121.097,-457.319 L 121.333,-457.494 L 121.586,-457.646 L 121.852,-457.772
 L 122.129,-457.871 L 122.415,-457.942 L 122.706,-457.986 L 123,-458 L 127,-458 L 127.294,-457.986
 L 127.585,-457.942 L 127.871,-457.871 L 128.148,-457.772 L 128.414,-457.646 L 128.667,-457.494 L 128.903,-457.319
 L 129.121,-457.121 L 129.319,-456.903 L 129.494,-456.667 L 129.646,-456.414 L 129.772,-456.148 L 129.871,-455.871
 L 129.942,-455.585 L 129.986,-455.294 L 130,-455 L 130,-449 L 129.986,-448.706 L 129.942,-448.415
 L 129.871,-448.129 L 129.772,-447.852 L 129.646,-447.586 L 129.494,-447.333 L 129.319,-447.097 L 129.121,-446.879
 L 128.903,-446.681 L 128.667,-446.506 L 128.414,-446.354 L 128.148,-446.228 L 127.871,-446.129 L 127.585,-446.058
 L 127.294,-446.014 L 127,-446 z
M 135.808,-401.488 L 138.589,-401.9 L 141.317,-402.584 L 143.964,-403.531 L 146.506,-404.733 L 148.917,-406.178
 L 151.175,-407.853 L 153.259,-409.741 L 155.147,-411.825 L 156.822,-414.083 L 158.267,-416.494 L 159.469,-419.036
 L 160.416,-421.683 L 160.997,-424 L 157.135,-424 L 156.828,-422.772 L 156.005,-420.471 L 154.96,-418.262
 L 153.704,-416.166 L 152.248,-414.204 L 151.5,-413.378 L 151.5,-423 L 151.486,-423.294 L 151.442,-423.585
 L 151.371,-423.871 L 151.272,-424.148 L 151.146,-424.414 L 150.994,-424.667 L 150.819,-424.903 L 150.621,-425.121
 L 150.403,-425.319 L 150.167,-425.494 L 149.914,-425.646 L 149.648,-425.772 L 149.371,-425.871 L 149.085,-425.942
 L 148.794,-425.986 L 148.5,-426 L 97,-426 L 96.7059,-425.986 L 96.4147,-425.942 L 96.1291,-425.871
 L 95.8519,-425.772 L 95.5858,-425.646 L 95.3333,-425.494 L 95.0968,-425.319 L 94.8787,-425.121 L 94.681,-424.903
 L 94.5056,-424.667 L 94.3542,-424.414 L 94.2283,-424.148 L 94.1292,-423.871 L 94.0576,-423.585 L 94.0144,-423.294
 L 94,-423 L 94,-411 L 94.0144,-410.706 L 94.0576,-410.415 L 94.1292,-410.129 L 94.2283,-409.852
 L 94.3542,-409.586 L 94.5056,-409.333 L 94.681,-409.097 L 94.8787,-408.879 L 95.0968,-408.681 L 95.3333,-408.506
 L 95.5858,-408.354 L 95.8519,-408.228 L 96.1291,-408.129 L 96.4147,-408.058 L 96.7059,-408.014 L 97,-408
 L 114.663,-408 L 114.825,-407.853 L 117.083,-406.178 L 119.494,-404.733 L 122.036,-403.531 L 124.683,-402.584
 L 127.411,-401.9 L 130.192,-401.488 L 133,-401.35 z
M 122.064,-410.034 L 121.384,-410.134 L 120.718,-410.301 L 120.071,-410.533 L 119.45,-410.827 L 118.861,-411.18
 L 118.309,-411.589 L 117.8,-412.05 L 117.339,-412.559 L 116.93,-413.111 L 116.577,-413.7 L 116.283,-414.321
 L 116.051,-414.968 L 115.884,-415.634 L 115.784,-416.314 L 115.75,-417 L 115.784,-417.686 L 115.884,-418.366
 L 116.051,-419.032 L 116.283,-419.679 L 116.577,-420.3 L 116.93,-420.889 L 117.339,-421.441 L 117.8,-421.95
 L 118.309,-422.411 L 118.861,-422.82 L 119.45,-423.173 L 120.071,-423.467 L 120.718,-423.699 L 121.384,-423.865
 L 122.064,-423.966 L 122.75,-424 L 123.436,-423.966 L 124.116,-423.865 L 124.782,-423.699 L 125.429,-423.467
 L 126.05,-423.173 L 126.639,-422.82 L 127.191,-422.411 L 127.7,-421.95 L 128.161,-421.441 L 128.57,-420.889
 L 128.923,-420.3 L 129.217,-419.679 L 129.449,-419.032 L 129.615,-418.366 L 129.716,-417.686 L 129.75,-417
 L 129.716,-416.314 L 129.615,-415.634 L 129.449,-414.968 L 129.217,-414.321 L 128.923,-413.7 L 128.57,-413.111
 L 128.161,-412.559 L 127.7,-412.05 L 127.191,-411.589 L 126.639,-411.18 L 126.05,-410.827 L 125.429,-410.533
 L 124.782,-410.301 L 124.116,-410.134 L 123.436,-410.034 L 122.75,-410 z
M 130.559,-405.22 L 128.142,-405.578 L 125.772,-406.172 L 123.471,-406.995 L 121.347,-408 L 144.653,-408
 L 142.529,-406.995 L 140.228,-406.172 L 137.858,-405.578 L 135.441,-405.22 L 133,-405.1 z
M 150.283,-345.091 L 151.108,-345.213 L 151.917,-345.416 L 152.703,-345.697 L 153.457,-346.054 L 154.172,-346.482
 L 154.842,-346.979 L 155.46,-347.54 L 156.021,-348.158 L 156.517,-348.828 L 156.946,-349.543 L 157.303,-350.297
 L 157.584,-351.083 L 157.787,-351.892 L 157.909,-352.717 L 157.95,-353.55 L 157.95,-386.45 L 157.909,-387.283
 L 157.787,-388.108 L 157.584,-388.917 L 157.303,-389.703 L 156.946,-390.457 L 156.517,-391.172 L 156.021,-391.842
 L 155.46,-392.46 L 154.842,-393.021 L 154.172,-393.517 L 153.457,-393.946 L 152.703,-394.303 L 151.917,-394.584
 L 151.108,-394.787 L 150.283,-394.909 L 149.45,-394.95 L 116.55,-394.95 L 115.717,-394.909 L 114.892,-394.787
 L 114.083,-394.584 L 113.297,-394.303 L 112.543,-393.946 L 111.828,-393.517 L 111.158,-393.021 L 110.54,-392.46
 L 109.979,-391.842 L 109.482,-391.172 L 109.054,-390.457 L 108.697,-389.703 L 108.416,-388.917 L 108.213,-388.108
 L 108.091,-387.283 L 108.05,-386.45 L 108.05,-353.55 L 108.091,-352.717 L 108.213,-351.892 L 108.416,-351.083
 L 108.697,-350.297 L 109.054,-349.543 L 109.482,-348.828 L 109.979,-348.158 L 110.54,-347.54 L 111.158,-346.979
 L 111.828,-346.482 L 112.543,-346.054 L 113.297,-345.697 L 114.083,-345.416 L 114.892,-345.213 L 115.717,-345.091
 L 116.55,-345.05 L 149.45,-345.05 z
M 116.55,-349.55 L 116.158,-349.569 L 115.77,-349.627 L 115.389,-349.722 L 115.019,-349.854 L 114.664,-350.022
 L 114.328,-350.224 L 114.012,-350.458 L 113.722,-350.722 L 113.458,-351.012 L 113.224,-351.328 L 113.022,-351.664
 L 112.854,-352.019 L 112.722,-352.389 L 112.627,-352.77 L 112.569,-353.158 L 112.55,-353.55 L 112.55,-386.45
 L 112.569,-386.842 L 112.627,-387.23 L 112.722,-387.611 L 112.854,-387.981 L 113.022,-388.336 L 113.224,-388.672
 L 113.458,-388.988 L 113.722,-389.278 L 114.012,-389.542 L 114.328,-389.776 L 114.664,-389.978 L 115.019,-390.146
 L 115.389,-390.278 L 115.77,-390.373 L 116.158,-390.431 L 116.55,-390.45 L 149.45,-390.45 L 149.842,-390.431
 L 150.23,-390.373 L 150.611,-390.278 L 150.981,-390.146 L 151.336,-389.978 L 151.672,-389.776 L 151.988,-389.542
 L 152.278,-389.278 L 152.542,-388.988 L 152.776,-388.672 L 152.978,-388.336 L 153.146,-387.981 L 153.278,-387.611
 L 153.373,-387.23 L 153.431,-386.842 L 153.45,-386.45 L 153.45,-353.55 L 153.431,-353.158 L 153.373,-352.77
 L 153.278,-352.389 L 153.146,-352.019 L 152.978,-351.664 L 152.776,-351.328 L 152.542,-351.012 L 152.278,-350.722
 L 151.988,-350.458 L 151.672,-350.224 L 151.336,-350.022 L 150.981,-349.854 L 150.611,-349.722 L 150.23,-349.627
 L 149.842,-349.569 L 149.45,-349.55 z
M 75.294,-264.014 L 75.5853,-264.058 L 75.8708,-264.129 L 76.148,-264.228 L 76.4142,-264.354 L 76.6667,-264.506
 L 76.9032,-264.681 L 77.1213,-264.879 L 77.319,-265.097 L 77.4944,-265.333 L 77.6458,-265.586 L 77.7716,-265.852
 L 77.8708,-266.129 L 77.9424,-266.415 L 77.9855,-266.706 L 78,-267 L 78,-363 L 77.9855,-363.294
 L 77.9424,-363.585 L 77.8708,-363.871 L 77.7716,-364.148 L 77.6458,-364.414 L 77.4944,-364.667 L 77.319,-364.903
 L 77.1213,-365.121 L 76.9032,-365.319 L 76.6667,-365.494 L 76.4142,-365.646 L 76.148,-365.772 L 75.8708,-365.871
 L 75.5853,-365.942 L 75.294,-365.986 L 75,-366 L 3,-366 L 2.70595,-365.986 L 2.41472,-365.942
 L 2.12914,-365.871 L 1.85194,-365.772 L 1.5858,-365.646 L 1.33328,-365.494 L 1.09682,-365.319 L 0.878677,-365.121
 L 0.680954,-364.903 L 0.505585,-364.667 L 0.354233,-364.414 L 0.228348,-364.148 L 0.129166,-363.871 L 0.0576324,-363.585
 L 0.0144348,-363.294 L 0,-363 L 0,-267 L 0.0144348,-266.706 L 0.0576324,-266.415 L 0.129166,-266.129
 L 0.228348,-265.852 L 0.354233,-265.586 L 0.505585,-265.333 L 0.680954,-265.097 L 0.878677,-264.879 L 1.09682,-264.681
 L 1.33328,-264.506 L 1.5858,-264.354 L 1.85194,-264.228 L 2.12914,-264.129 L 2.41472,-264.058 L 2.70595,-264.014
 L 3,-264 L 75,-264 z
M 37,-348 L 36.7059,-348.014 L 36.4147,-348.058 L 36.1291,-348.129 L 35.8519,-348.228 L 35.5858,-348.354
 L 35.3333,-348.506 L 35.0968,-348.681 L 34.8787,-348.879 L 34.681,-349.097 L 34.5056,-349.333 L 34.3542,-349.586
 L 34.2283,-349.852 L 34.1292,-350.129 L 34.0576,-350.415 L 34.0144,-350.706 L 34,-351 L 34,-361
 L 34.0144,-361.294 L 34.0576,-361.585 L 34.1292,-361.871 L 34.2283,-362.148 L 34.3542,-362.414 L 34.5056,-362.667
 L 34.681,-362.903 L 34.8787,-363.121 L 35.0968,-363.319 L 35.3333,-363.494 L 35.5858,-363.646 L 35.8519,-363.772
 L 36.1291,-363.871 L 36.4147,-363.942 L 36.7059,-363.986 L 37,-364 L 41,-364 L 41.294,-363.986
 L 41.5853,-363.942 L 41.8708,-363.871 L 42.148,-363.772 L 42.4142,-363.646 L 42.6667,-363.494 L 42.9032,-363.319
 L 43.1213,-363.121 L 43.319,-362.903 L 43.4944,-362.667 L 43.6458,-362.414 L 43.7716,-362.148 L 43.8708,-361.871
 L 43.9424,-361.585 L 43.9855,-361.294 L 44,-361 L 44,-351 L 43.9855,-350.706 L 43.9424,-350.415
 L 43.8708,-350.129 L 43.7716,-349.852 L 43.6458,-349.586 L 43.4944,-349.333 L 43.319,-349.097 L 43.1213,-348.879
 L 42.9032,-348.681 L 42.6667,-348.506 L 42.4142,-348.354 L 42.148,-348.228 L 41.8708,-348.129 L 41.5853,-348.058
 L 41.294,-348.014 L 41,-348 z
M 68.05,-334 L 67.903,-334.007 L 67.7574,-334.029 L 67.6146,-334.065 L 67.476,-334.114 L 67.3429,-334.177
 L 67.2166,-334.253 L 67.0984,-334.34 L 66.9893,-334.439 L 66.8905,-334.548 L 66.8028,-334.667 L 66.7271,-334.793
 L 66.6642,-334.926 L 66.6146,-335.065 L 66.5788,-335.207 L 66.5572,-335.353 L 66.55,-335.5 L 66.55,-350.95
 L 66.5572,-351.097 L 66.5788,-351.243 L 66.6146,-351.385 L 66.6642,-351.524 L 66.7271,-351.657 L 66.8028,-351.783
 L 66.8905,-351.902 L 66.9893,-352.011 L 67.0984,-352.11 L 67.2166,-352.197 L 67.3429,-352.273 L 67.476,-352.336
 L 67.6146,-352.385 L 67.7574,-352.421 L 67.903,-352.443 L 68.05,-352.45 L 68.5,-352.45 L 68.647,-352.443
 L 68.7926,-352.421 L 68.9354,-352.385 L 69.074,-352.336 L 69.2071,-352.273 L 69.3333,-352.197 L 69.4516,-352.11
 L 69.5607,-352.011 L 69.6595,-351.902 L 69.7472,-351.783 L 69.8229,-351.657 L 69.8858,-351.524 L 69.9354,-351.385
 L 69.9712,-351.243 L 69.9928,-351.097 L 70,-350.95 L 70,-335.5 L 69.9928,-335.353 L 69.9712,-335.207
 L 69.9354,-335.065 L 69.8858,-334.926 L 69.8229,-334.793 L 69.7472,-334.667 L 69.6595,-334.548 L 69.5607,-334.439
 L 69.4516,-334.34 L 69.3333,-334.253 L 69.2071,-334.177 L 69.074,-334.114 L 68.9354,-334.065 L 68.7926,-334.029
 L 68.647,-334.007 L 68.5,-334 z
M 9.5,-334 L 9.35297,-334.007 L 9.20735,-334.029 L 9.06456,-334.065 L 8.92596,-334.114 L 8.79289,-334.177
 L 8.66664,-334.253 L 8.5484,-334.34 L 8.43933,-334.439 L 8.34047,-334.548 L 8.25279,-334.667 L 8.17711,-334.793
 L 8.11417,-334.926 L 8.06458,-335.065 L 8.02881,-335.207 L 8.00722,-335.353 L 8,-335.5 L 8,-350.95
 L 8.00722,-351.097 L 8.02881,-351.243 L 8.06458,-351.385 L 8.11417,-351.524 L 8.17711,-351.657 L 8.25279,-351.783
 L 8.34047,-351.902 L 8.43933,-352.011 L 8.5484,-352.11 L 8.66664,-352.197 L 8.79289,-352.273 L 8.92596,-352.336
 L 9.06456,-352.385 L 9.20735,-352.421 L 9.35297,-352.443 L 9.5,-352.45 L 9.95,-352.45 L 10.097,-352.443
 L 10.2426,-352.421 L 10.3854,-352.385 L 10.524,-352.336 L 10.6571,-352.273 L 10.7833,-352.197 L 10.9016,-352.11
 L 11.0107,-352.011 L 11.1095,-351.902 L 11.1972,-351.783 L 11.2729,-351.657 L 11.3358,-351.524 L 11.3854,-351.385
 L 11.4212,-351.243 L 11.4428,-351.097 L 11.45,-350.95 L 11.45,-335.5 L 11.4428,-335.353 L 11.4212,-335.207
 L 11.3854,-335.065 L 11.3358,-334.926 L 11.2729,-334.793 L 11.1972,-334.667 L 11.1095,-334.548 L 11.0107,-334.439
 L 10.9016,-334.34 L 10.7833,-334.253 L 10.6571,-334.177 L 10.524,-334.114 L 10.3854,-334.065 L 10.2426,-334.029
 L 10.097,-334.007 L 9.95,-334 z
M 68.05,-288 L 67.903,-288.007 L 67.7574,-288.029 L 67.6146,-288.065 L 67.476,-288.114 L 67.3429,-288.177
 L 67.2166,-288.253 L 67.0984,-288.34 L 66.9893,-288.439 L 66.8905,-288.548 L 66.8028,-288.667 L 66.7271,-288.793
 L 66.6642,-288.926 L 66.6146,-289.065 L 66.5788,-289.207 L 66.5572,-289.353 L 66.55,-289.5 L 66.55,-304.95
 L 66.5572,-305.097 L 66.5788,-305.243 L 66.6146,-305.385 L 66.6642,-305.524 L 66.7271,-305.657 L 66.8028,-305.783
 L 66.8905,-305.902 L 66.9893,-306.011 L 67.0984,-306.11 L 67.2166,-306.197 L 67.3429,-306.273 L 67.476,-306.336
 L 67.6146,-306.385 L 67.7574,-306.421 L 67.903,-306.443 L 68.05,-306.45 L 68.5,-306.45 L 68.647,-306.443
 L 68.7926,-306.421 L 68.9354,-306.385 L 69.074,-306.336 L 69.2071,-306.273 L 69.3333,-306.197 L 69.4516,-306.11
 L 69.5607,-306.011 L 69.6595,-305.902 L 69.7472,-305.783 L 69.8229,-305.657 L 69.8858,-305.524 L 69.9354,-305.385
 L 69.9712,-305.243 L 69.9928,-305.097 L 70,-304.95 L 70,-289.5 L 69.9928,-289.353 L 69.9712,-289.207
 L 69.9354,-289.065 L 69.8858,-288.926 L 69.8229,-288.793 L 69.7472,-288.667 L 69.6595,-288.548 L 69.5607,-288.439
 L 69.4516,-288.34 L 69.3333,-288.253 L 69.2071,-288.177 L 69.074,-288.114 L 68.9354,-288.065 L 68.7926,-288.029
 L 68.647,-288.007 L 68.5,-288 z
M 9.5,-288 L 9.35297,-288.007 L 9.20735,-288.029 L 9.06456,-288.065 L 8.92596,-288.114 L 8.79289,-288.177
 L 8.66664,-288.253 L 8.5484,-288.34 L 8.43933,-288.439 L 8.34047,-288.548 L 8.25279,-288.667 L 8.17711,-288.793
 L 8.11417,-288.926 L 8.06458,-289.065 L 8.02881,-289.207 L 8.00722,-289.353 L 8,-289.5 L 8,-304.95
 L 8.00722,-305.097 L 8.02881,-305.243 L 8.06458,-305.385 L 8.11417,-305.524 L 8.17711,-305.657 L 8.25279,-305.783
 L 8.34047,-305.902 L 8.43933,-306.011 L 8.5484,-306.11 L 8.66664,-306.197 L 8.79289,-306.273 L 8.92596,-306.336
 L 9.06456,-306.385 L 9.20735,-306.421 L 9.35297,-306.443 L 9.5,-306.45 L 9.95,-306.45 L 10.097,-306.443
 L 10.2426,-306.421 L 10.3854,-306.385 L 10.524,-306.336 L 10.6571,-306.273 L 10.7833,-306.197 L 10.9016,-306.11
 L 11.0107,-306.011 L 11.1095,-305.902 L 11.1972,-305.783 L 11.2729,-305.657 L 11.3358,-305.524 L 11.3854,-305.385
 L 11.4212,-305.243 L 11.4428,-305.097 L 11.45,-304.95 L 11.45,-289.5 L 11.4428,-289.353 L 11.4212,-289.207
 L 11.3854,-289.065 L 11.3358,-288.926 L 11.2729,-288.793 L 11.1972,-288.667 L 11.1095,-288.548 L 11.0107,-288.439
 L 10.9016,-288.34 L 10.7833,-288.253 L 10.6571,-288.177 L 10.524,-288.114 L 10.3854,-288.065 L 10.2426,-288.029
 L 10.097,-288.007 L 9.95,-288 z
M 170.196,-264.01 L 170.39,-264.038 L 170.581,-264.086 L 170.765,-264.152 L 170.943,-264.236 L 171.111,-264.337
 L 171.269,-264.454 L 171.414,-264.586 L 171.546,-264.731 L 171.663,-264.889 L 171.764,-265.057 L 171.848,-265.235
 L 171.914,-265.419 L 171.962,-265.61 L 171.99,-265.804 L 172,-266 L 172,-278 L 171.99,-278.196
 L 171.962,-278.39 L 171.914,-278.581 L 171.848,-278.765 L 171.764,-278.943 L 171.663,-279.111 L 171.546,-279.269
 L 171.414,-279.414 L 171.269,-279.546 L 171.111,-279.663 L 170.943,-279.764 L 170.765,-279.848 L 170.581,-279.914
 L 170.39,-279.962 L 170.196,-279.99 L 170,-280 L 96,-280 L 95.804,-279.99 L 95.6098,-279.962
 L 95.4194,-279.914 L 95.2346,-279.848 L 95.0572,-279.764 L 94.8889,-279.663 L 94.7312,-279.546 L 94.5858,-279.414
 L 94.454,-279.269 L 94.3371,-279.111 L 94.2361,-278.943 L 94.1522,-278.765 L 94.0861,-278.581 L 94.0384,-278.39
 L 94.0096,-278.196 L 94,-278 L 94,-266 L 94.0096,-265.804 L 94.0384,-265.61 L 94.0861,-265.419
 L 94.1522,-265.235 L 94.2361,-265.057 L 94.3371,-264.889 L 94.454,-264.731 L 94.5858,-264.586 L 94.7312,-264.454
 L 94.8889,-264.337 L 95.0572,-264.236 L 95.2346,-264.152 L 95.4194,-264.086 L 95.6098,-264.038 L 95.804,-264.01
 L 96,-264 L 170,-264 z
M 234.647,-122.007 L 234.793,-122.029 L 234.935,-122.065 L 235.074,-122.114 L 235.207,-122.177 L 235.333,-122.253
 L 235.452,-122.34 L 235.561,-122.439 L 235.66,-122.548 L 235.747,-122.667 L 235.823,-122.793 L 235.886,-122.926
 L 235.935,-123.065 L 235.971,-123.207 L 235.993,-123.353 L 236,-123.5 L 236,-130.6 L 235.993,-130.747
 L 235.971,-130.893 L 235.935,-131.035 L 235.886,-131.174 L 235.823,-131.307 L 235.747,-131.433 L 235.66,-131.552
 L 235.561,-131.661 L 235.452,-131.76 L 235.333,-131.847 L 235.207,-131.923 L 235.074,-131.986 L 235.034,-132
 L 264.966,-132 L 264.926,-131.986 L 264.793,-131.923 L 264.667,-131.847 L 264.548,-131.76 L 264.439,-131.661
 L 264.34,-131.552 L 264.253,-131.433 L 264.177,-131.307 L 264.114,-131.174 L 264.065,-131.035 L 264.029,-130.893
 L 264.007,-130.747 L 264,-130.6 L 264,-123.5 L 264.007,-123.353 L 264.029,-123.207 L 264.065,-123.065
 L 264.114,-122.926 L 264.177,-122.793 L 264.253,-122.667 L 264.34,-122.548 L 264.439,-122.439 L 264.548,-122.34
 L 264.667,-122.253 L 264.793,-122.177 L 264.926,-122.114 L 265.065,-122.065 L 265.207,-122.029 L 265.353,-122.007
 L 265.5,-122 L 280.5,-122 L 280.647,-122.007 L 280.793,-122.029 L 280.935,-122.065 L 281.074,-122.114
 L 281.207,-122.177 L 281.333,-122.253 L 281.452,-122.34 L 281.561,-122.439 L 281.66,-122.548 L 281.747,-122.667
 L 281.823,-122.793 L 281.886,-122.926 L 281.935,-123.065 L 281.971,-123.207 L 281.993,-123.353 L 282,-123.5
 L 282,-130.6 L 281.993,-130.747 L 281.971,-130.893 L 281.935,-131.035 L 281.886,-131.174 L 281.823,-131.307
 L 281.747,-131.433 L 281.66,-131.552 L 281.561,-131.661 L 281.452,-131.76 L 281.333,-131.847 L 281.207,-131.923
 L 281.074,-131.986 L 281.034,-132 L 306,-132 L 306,-151 L 287,-151 L 223,-248
 L 204,-248 L 204,-132 L 218.966,-132 L 218.926,-131.986 L 218.793,-131.923 L 218.667,-131.847
 L 218.548,-131.76 L 218.439,-131.661 L 218.34,-131.552 L 218.253,-131.433 L 218.177,-131.307 L 218.114,-131.174
 L 218.065,-131.035 L 218.029,-130.893 L 218.007,-130.747 L 218,-130.6 L 218,-123.5 L 218.007,-123.353
 L 218.029,-123.207 L 218.065,-123.065 L 218.114,-122.926 L 218.177,-122.793 L 218.253,-122.667 L 218.34,-122.548
 L 218.439,-122.439 L 218.548,-122.34 L 218.667,-122.253 L 218.793,-122.177 L 218.926,-122.114 L 219.065,-122.065
 L 219.207,-122.029 L 219.353,-122.007 L 219.5,-122 L 234.5,-122 z
M 240,-163 L 240,-214 L 274,-163 z
M 213,-150 L 212.706,-150.014 L 212.415,-150.058 L 212.129,-150.129 L 211.852,-150.228 L 211.586,-150.354
 L 211.333,-150.506 L 211.097,-150.681 L 210.879,-150.879 L 210.681,-151.097 L 210.506,-151.333 L 210.354,-151.586
 L 210.228,-151.852 L 210.129,-152.129 L 210.058,-152.415 L 210.014,-152.706 L 210,-153 L 210,-177
 L 210.014,-177.294 L 210.058,-177.585 L 210.129,-177.871 L 210.228,-178.148 L 210.354,-178.414 L 210.506,-178.667
 L 210.681,-178.903 L 210.879,-179.121 L 211.097,-179.319 L 211.333,-179.494 L 211.586,-179.646 L 211.852,-179.772
 L 212.129,-179.871 L 212.415,-179.942 L 212.706,-179.986 L 213,-180 L 217,-180 L 217.294,-179.986
 L 217.585,-179.942 L 217.871,-179.871 L 218.148,-179.772 L 218.414,-179.646 L 218.667,-179.494 L 218.903,-179.319
 L 219.121,-179.121 L 219.319,-178.903 L 219.494,-178.667 L 219.646,-178.414 L 219.772,-178.148 L 219.871,-177.871
 L 219.942,-177.585 L 219.986,-177.294 L 220,-177 L 220,-153 L 219.986,-152.706 L 219.942,-152.415
 L 219.871,-152.129 L 219.772,-151.852 L 219.646,-151.586 L 219.494,-151.333 L 219.319,-151.097 L 219.121,-150.879
 L 218.903,-150.681 L 218.667,-150.506 L 218.414,-150.354 L 218.148,-150.228 L 217.871,-150.129 L 217.585,-150.058
 L 217.294,-150.014 L 217,-150 z
M 188,-151 L 172,-151 L 172,-246 L 171.99,-246.196 L 171.962,-246.39 L 171.914,-246.581
 L 171.848,-246.765 L 171.764,-246.943 L 171.663,-247.111 L 171.546,-247.269 L 171.414,-247.414 L 171.269,-247.546
 L 171.111,-247.663 L 170.943,-247.764 L 170.765,-247.848 L 170.581,-247.914 L 170.39,-247.962 L 170.196,-247.99
 L 170,-248 L 86,-248 L 86,-132 L 100.966,-132 L 100.926,-131.986 L 100.793,-131.923
 L 100.667,-131.847 L 100.548,-131.76 L 100.439,-131.661 L 100.34,-131.552 L 100.253,-131.433 L 100.177,-131.307
 L 100.114,-131.174 L 100.065,-131.035 L 100.029,-130.893 L 100.007,-130.747 L 100,-130.6 L 100,-123.5
 L 100.007,-123.353 L 100.029,-123.207 L 100.065,-123.065 L 100.114,-122.926 L 100.177,-122.793 L 100.253,-122.667
 L 100.34,-122.548 L 100.439,-122.439 L 100.548,-122.34 L 100.667,-122.253 L 100.793,-122.177 L 100.926,-122.114
 L 101.065,-122.065 L 101.207,-122.029 L 101.353,-122.007 L 101.5,-122 L 116.5,-122 L 116.647,-122.007
 L 116.793,-122.029 L 116.935,-122.065 L 117.074,-122.114 L 117.207,-122.177 L 117.333,-122.253 L 117.452,-122.34
 L 117.561,-122.439 L 117.66,-122.548 L 117.747,-122.667 L 117.823,-122.793 L 117.886,-122.926 L 117.935,-123.065
 L 117.971,-123.207 L 117.993,-123.353 L 118,-123.5 L 118,-130.6 L 117.993,-130.747 L 117.971,-130.893
 L 117.935,-131.035 L 117.886,-131.174 L 117.823,-131.307 L 117.747,-131.433 L 117.66,-131.552 L 117.561,-131.661
 L 117.452,-131.76 L 117.333,-131.847 L 117.207,-131.923 L 117.074,-131.986 L 117.034,-132 L 146.966,-132
 L 146.926,-131.986 L 146.793,-131.923 L 146.667,-131.847 L 146.548,-131.76 L 146.439,-131.661 L 146.34,-131.552
 L 146.253,-131.433 L 146.177,-131.307 L 146.114,-131.174 L 146.065,-131.035 L 146.029,-130.893 L 146.007,-130.747
 L 146,-130.6 L 146,-123.5 L 146.007,-123.353 L 146.029,-123.207 L 146.065,-123.065 L 146.114,-122.926
 L 146.177,-122.793 L 146.253,-122.667 L 146.34,-122.548 L 146.439,-122.439 L 146.548,-122.34 L 146.667,-122.253
 L 146.793,-122.177 L 146.926,-122.114 L 147.065,-122.065 L 147.207,-122.029 L 147.353,-122.007 L 147.5,-122
 L 162.5,-122 L 162.647,-122.007 L 162.793,-122.029 L 162.935,-122.065 L 163.074,-122.114 L 163.207,-122.177
 L 163.333,-122.253 L 163.452,-122.34 L 163.561,-122.439 L 163.66,-122.548 L 163.747,-122.667 L 163.823,-122.793
 L 163.886,-122.926 L 163.935,-123.065 L 163.971,-123.207 L 163.993,-123.353 L 164,-123.5 L 164,-130.6
 L 163.993,-130.747 L 163.971,-130.893 L 163.935,-131.035 L 163.886,-131.174 L 163.823,-131.307 L 163.747,-131.433
 L 163.66,-131.552 L 163.561,-131.661 L 163.452,-131.76 L 163.333,-131.847 L 163.207,-131.923 L 163.074,-131.986
 L 163.034,-132 L 188,-132 z
M 127.433,-214 L 141,-214 L 141.49,-213.976 L 141.975,-213.904 L 142.451,-213.785 L 142.913,-213.619
 L 143.357,-213.41 L 143.778,-213.157 L 144.172,-212.865 L 144.536,-212.536 L 144.865,-212.172 L 145.157,-211.778
 L 145.41,-211.357 L 145.619,-210.913 L 145.785,-210.451 L 145.904,-209.975 L 145.976,-209.49 L 146,-209
 L 146,-203 L 145.976,-202.51 L 145.904,-202.025 L 145.785,-201.549 L 145.619,-201.087 L 145.41,-200.643
 L 145.157,-200.222 L 144.865,-199.828 L 144.536,-199.464 L 144.172,-199.135 L 143.778,-198.843 L 143.357,-198.59
 L 142.913,-198.381 L 142.451,-198.215 L 141.975,-198.096 L 141.49,-198.024 L 141,-198 L 137.99,-198
 z
M 128,-163 L 128,-196 L 128.014,-196.294 L 128.058,-196.585 L 128.129,-196.871 L 128.228,-197.148
 L 128.354,-197.414 L 128.506,-197.667 L 128.681,-197.903 L 128.769,-198 L 125,-198 L 124.51,-198.024
 L 124.025,-198.096 L 123.549,-198.215 L 123.087,-198.381 L 122.643,-198.59 L 122.222,-198.843 L 122,-199.007
 L 122,-212.993 L 122.222,-213.157 L 122.465,-213.303 L 138,-190 L 138,-163 z
M 93.852,-150.228 L 93.5858,-150.354 L 93.3333,-150.506 L 93.0968,-150.681 L 92.8787,-150.879 L 92.681,-151.097
 L 92.5056,-151.333 L 92.3542,-151.586 L 92.2284,-151.852 L 92.1292,-152.129 L 92.0576,-152.415 L 92.0145,-152.706
 L 92,-153 L 92,-177 L 92.0145,-177.294 L 92.0576,-177.585 L 92.1292,-177.871 L 92.2284,-178.148
 L 92.3542,-178.414 L 92.5056,-178.667 L 92.681,-178.903 L 92.8787,-179.121 L 93.0968,-179.319 L 93.3333,-179.494
 L 93.5858,-179.646 L 93.852,-179.772 L 94,-179.825 L 94,-150.175 z
M 76.196,-132.01 L 76.3902,-132.038 L 76.5806,-132.086 L 76.7654,-132.152 L 76.9428,-132.236 L 77.1111,-132.337
 L 77.2688,-132.454 L 77.4142,-132.586 L 77.546,-132.731 L 77.6629,-132.889 L 77.7638,-133.057 L 77.8477,-133.235
 L 77.9139,-133.419 L 77.9616,-133.61 L 77.9904,-133.804 L 78,-134 L 78,-246 L 77.9904,-246.196
 L 77.9616,-246.39 L 77.9139,-246.581 L 77.8477,-246.765 L 77.7638,-246.943 L 77.6629,-247.111 L 77.546,-247.269
 L 77.4142,-247.414 L 77.2688,-247.546 L 77.1111,-247.663 L 76.9428,-247.764 L 76.7654,-247.848 L 76.5806,-247.914
 L 76.3902,-247.962 L 76.196,-247.99 L 76,-248 L 2,-248 L 1.80396,-247.99 L 1.60982,-247.962
 L 1.41942,-247.914 L 1.23462,-247.848 L 1.05721,-247.764 L 0.888855,-247.663 L 0.731201,-247.546 L 0.585785,-247.414
 L 0.453964,-247.269 L 0.337051,-247.111 L 0.236145,-246.943 L 0.152237,-246.765 L 0.0861053,-246.581 L 0.0384216,-246.39
 L 0.0096283,-246.196 L 0,-246 L 0,-134 L 0.0096283,-133.804 L 0.0384216,-133.61 L 0.0861053,-133.419
 L 0.152237,-133.235 L 0.236145,-133.057 L 0.337051,-132.889 L 0.453964,-132.731 L 0.585785,-132.586 L 0.731201,-132.454
 L 0.888855,-132.337 L 1.05721,-132.236 L 1.23462,-132.152 L 1.41942,-132.086 L 1.60982,-132.038 L 1.80396,-132.01
 L 2,-132 L 76,-132 z
M 37,-139 L 36.7059,-139.014 L 36.4147,-139.058 L 36.1291,-139.129 L 35.8519,-139.228 L 35.5858,-139.354
 L 35.3333,-139.506 L 35.0968,-139.681 L 34.8787,-139.879 L 34.681,-140.097 L 34.5056,-140.333 L 34.3542,-140.586
 L 34.2283,-140.852 L 34.1292,-141.129 L 34.0576,-141.415 L 34.0144,-141.706 L 34,-142 L 34,-196
 L 34.0144,-196.294 L 34.0576,-196.585 L 34.1292,-196.871 L 34.2283,-197.148 L 34.3542,-197.414 L 34.5056,-197.667
 L 34.681,-197.903 L 34.7687,-198 L 31,-198 L 30.5099,-198.024 L 30.0245,-198.096 L 29.5486,-198.215
 L 29.0866,-198.381 L 28.643,-198.59 L 28.2221,-198.843 L 27.828,-199.135 L 27.4645,-199.464 L 27.1349,-199.828
 L 26.8427,-200.222 L 26.5904,-200.643 L 26.3806,-201.087 L 26.2153,-201.549 L 26.0961,-202.025 L 26.0241,-202.51
 L 26,-203 L 26,-209 L 26.0241,-209.49 L 26.0961,-209.975 L 26.2153,-210.451 L 26.3806,-210.913
 L 26.5904,-211.357 L 26.8427,-211.778 L 27.1349,-212.172 L 27.4645,-212.536 L 27.828,-212.865 L 28.2221,-213.157
 L 28.643,-213.41 L 29.0866,-213.619 L 29.5486,-213.785 L 30.0245,-213.904 L 30.5099,-213.976 L 31,-214
 L 47,-214 L 47.4901,-213.976 L 47.9754,-213.904 L 48.4514,-213.785 L 48.9134,-213.619 L 49.357,-213.41
 L 49.7778,-213.157 L 50.172,-212.865 L 50.5355,-212.536 L 50.8651,-212.172 L 51.1573,-211.778 L 51.4096,-211.357
 L 51.6194,-210.913 L 51.7847,-210.451 L 51.9039,-209.975 L 51.9759,-209.49 L 52,-209 L 52,-203
 L 51.9759,-202.51 L 51.9039,-202.025 L 51.7847,-201.549 L 51.6194,-201.087 L 51.4096,-200.643 L 51.1573,-200.222
 L 50.8651,-199.828 L 50.5355,-199.464 L 50.172,-199.135 L 49.7778,-198.843 L 49.357,-198.59 L 48.9134,-198.381
 L 48.4514,-198.215 L 47.9754,-198.096 L 47.4901,-198.024 L 47,-198 L 43.2313,-198 L 43.319,-197.903
 L 43.4944,-197.667 L 43.6458,-197.414 L 43.7716,-197.148 L 43.8708,-196.871 L 43.9424,-196.585 L 43.9855,-196.294
 L 44,-196 L 44,-142 L 43.9855,-141.706 L 43.9424,-141.415 L 43.8708,-141.129 L 43.7716,-140.852
 L 43.6458,-140.586 L 43.4944,-140.333 L 43.319,-140.097 L 43.1213,-139.879 L 42.9032,-139.681 L 42.6667,-139.506
 L 42.4142,-139.354 L 42.148,-139.228 L 41.8708,-139.129 L 41.5853,-139.058 L 41.294,-139.014 L 41,-139
 z
M 228.647,9.99277 L 228.793,9.97118 L 228.935,9.93541 L 229.074,9.88582 L 229.207,9.82288 L 229.333,9.74719
 L 229.452,9.65952 L 229.561,9.56065 L 229.66,9.45158 L 229.747,9.33334 L 229.823,9.20709 L 229.886,9.07402
 L 229.935,8.93542 L 229.971,8.79263 L 229.993,8.64702 L 230,8.5 L 230,1.39999 L 229.993,1.25296
 L 229.971,1.10736 L 229.935,0.964569 L 229.886,0.825974 L 229.823,0.692902 L 229.747,0.566635 L 229.66,0.44841
 L 229.561,0.339325 L 229.452,0.240479 L 229.333,0.152786 L 229.207,0.0771179 L 229.074,0.0141754 L 229.034,-0
 L 258.966,-0 L 258.926,0.0141754 L 258.793,0.0771179 L 258.667,0.152786 L 258.548,0.240479 L 258.439,0.339325
 L 258.34,0.44841 L 258.253,0.566635 L 258.177,0.692902 L 258.114,0.825974 L 258.065,0.964569 L 258.029,1.10736
 L 258.007,1.25296 L 258,1.39999 L 258,8.5 L 258.007,8.64702 L 258.029,8.79263 L 258.065,8.93542
 L 258.114,9.07402 L 258.177,9.20709 L 258.253,9.33334 L 258.34,9.45158 L 258.439,9.56065 L 258.548,9.65952
 L 258.667,9.74719 L 258.793,9.82288 L 258.926,9.88582 L 259.065,9.93541 L 259.207,9.97118 L 259.353,9.99277
 L 259.5,10 L 274.5,10 L 274.647,9.99277 L 274.793,9.97118 L 274.935,9.93541 L 275.074,9.88582
 L 275.207,9.82288 L 275.333,9.74719 L 275.452,9.65952 L 275.561,9.56065 L 275.66,9.45158 L 275.747,9.33334
 L 275.823,9.20709 L 275.886,9.07402 L 275.935,8.93542 L 275.971,8.79263 L 275.993,8.64702 L 276,8.5
 L 276,1.39999 L 275.993,1.25296 L 275.971,1.10736 L 275.935,0.964569 L 275.886,0.825974 L 275.823,0.692902
 L 275.747,0.566635 L 275.66,0.44841 L 275.561,0.339325 L 275.452,0.240479 L 275.333,0.152786 L 275.207,0.0771179
 L 275.074,0.0141754 L 275.034,-0 L 290,-0 L 290,-116 L 271,-116 L 207,-19
 L 188,-19 L 188,-0 L 212.966,-0 L 212.926,0.0141754 L 212.793,0.0771179 L 212.667,0.152786
 L 212.548,0.240479 L 212.439,0.339325 L 212.34,0.44841 L 212.253,0.566635 L 212.177,0.692902 L 212.114,0.825974
 L 212.065,0.964569 L 212.029,1.10736 L 212.007,1.25296 L 212,1.39999 L 212,8.5 L 212.007,8.64702
 L 212.029,8.79263 L 212.065,8.93542 L 212.114,9.07402 L 212.177,9.20709 L 212.253,9.33334 L 212.34,9.45158
 L 212.439,9.56065 L 212.548,9.65952 L 212.667,9.74719 L 212.793,9.82288 L 212.926,9.88582 L 213.065,9.93541
 L 213.207,9.97118 L 213.353,9.99277 L 213.5,10 L 228.5,10 z
M 220,-31 L 254,-82 L 254,-31 z
M 277,-18 L 276.706,-18.0144 L 276.415,-18.0576 L 276.129,-18.1292 L 275.852,-18.2283 L 275.586,-18.3542
 L 275.333,-18.5056 L 275.097,-18.681 L 274.879,-18.8787 L 274.681,-19.0968 L 274.506,-19.3333 L 274.354,-19.5858
 L 274.228,-19.8519 L 274.129,-20.1291 L 274.058,-20.4147 L 274.014,-20.7059 L 274,-21 L 274,-45
 L 274.014,-45.294 L 274.058,-45.5853 L 274.129,-45.8708 L 274.228,-46.148 L 274.354,-46.4142 L 274.506,-46.6667
 L 274.681,-46.9032 L 274.879,-47.1213 L 275.097,-47.319 L 275.333,-47.4944 L 275.586,-47.6458 L 275.852,-47.7716
 L 276.129,-47.8708 L 276.415,-47.9424 L 276.706,-47.9855 L 277,-48 L 281,-48 L 281.294,-47.9855
 L 281.585,-47.9424 L 281.871,-47.8708 L 282.148,-47.7716 L 282.414,-47.6458 L 282.667,-47.4944 L 282.903,-47.319
 L 283.121,-47.1213 L 283.319,-46.9032 L 283.494,-46.6667 L 283.646,-46.4142 L 283.772,-46.148 L 283.871,-45.8708
 L 283.942,-45.5853 L 283.986,-45.294 L 284,-45 L 284,-21 L 283.986,-20.7059 L 283.942,-20.4147
 L 283.871,-20.1291 L 283.772,-19.8519 L 283.646,-19.5858 L 283.494,-19.3333 L 283.319,-19.0968 L 283.121,-18.8787
 L 282.903,-18.681 L 282.667,-18.5056 L 282.414,-18.3542 L 282.148,-18.2283 L 281.871,-18.1292 L 281.585,-18.0576
 L 281.294,-18.0144 L 281,-18 z
M 76.196,-0.0096283 L 76.3902,-0.0384216 L 76.5806,-0.0861053 L 76.7654,-0.152237 L 76.9428,-0.236145 L 77.1111,-0.337051
 L 77.2688,-0.453964 L 77.4142,-0.585785 L 77.546,-0.731201 L 77.6629,-0.888855 L 77.7638,-1.05721 L 77.8477,-1.23462
 L 77.9139,-1.41942 L 77.9616,-1.60982 L 77.9904,-1.80396 L 78,-2 L 78,-114 L 77.9904,-114.196
 L 77.9616,-114.39 L 77.9139,-114.581 L 77.8477,-114.765 L 77.7638,-114.943 L 77.6629,-115.111 L 77.546,-115.269
 L 77.4142,-115.414 L 77.2688,-115.546 L 77.1111,-115.663 L 76.9428,-115.764 L 76.7654,-115.848 L 76.5806,-115.914
 L 76.3902,-115.962 L 76.196,-115.99 L 76,-116 L 2,-116 L 1.80396,-115.99 L 1.60982,-115.962
 L 1.41942,-115.914 L 1.23462,-115.848 L 1.05721,-115.764 L 0.888855,-115.663 L 0.731201,-115.546 L 0.585785,-115.414
 L 0.453964,-115.269 L 0.337051,-115.111 L 0.236145,-114.943 L 0.152237,-114.765 L 0.0861053,-114.581 L 0.0384216,-114.39
 L 0.0096283,-114.196 L 0,-114 L 0,-2 L 0.0096283,-1.80396 L 0.0384216,-1.60982 L 0.0861053,-1.41942
 L 0.152237,-1.23462 L 0.236145,-1.05721 L 0.337051,-0.888855 L 0.453964,-0.731201 L 0.585785,-0.585785 L 0.731201,-0.453964
 L 0.888855,-0.337051 L 1.05721,-0.236145 L 1.23462,-0.152237 L 1.41942,-0.0861053 L 1.60982,-0.0384216 L 1.80396,-0.0096283
 L 2,-0 L 76,-0 z
M 28,-104 L 27.6079,-104.019 L 27.2196,-104.077 L 26.8389,-104.172 L 26.4693,-104.304 L 26.1144,-104.472
 L 25.7777,-104.674 L 25.4624,-104.908 L 25.1716,-105.172 L 24.9079,-105.462 L 24.6741,-105.778 L 24.4723,-106.114
 L 24.3045,-106.469 L 24.1722,-106.839 L 24.0769,-107.22 L 24.0193,-107.608 L 24,-108 L 24,-109
 L 24.0193,-109.392 L 24.0769,-109.78 L 24.1722,-110.161 L 24.3045,-110.531 L 24.4723,-110.886 L 24.6741,-111.222
 L 24.9079,-111.538 L 25.1716,-111.828 L 25.4624,-112.092 L 25.7777,-112.326 L 26.1144,-112.528 L 26.4693,-112.696
 L 26.8389,-112.828 L 27.2196,-112.923 L 27.6079,-112.981 L 28,-113 L 50,-113 L 50.3921,-112.981
 L 50.7803,-112.923 L 51.1611,-112.828 L 51.5307,-112.696 L 51.8856,-112.528 L 52.2223,-112.326 L 52.5376,-112.092
 L 52.8284,-111.828 L 53.092,-111.538 L 53.3259,-111.222 L 53.5277,-110.886 L 53.6955,-110.531 L 53.8278,-110.161
 L 53.9231,-109.78 L 53.9807,-109.392 L 54,-109 L 54,-108 L 53.9807,-107.608 L 53.9231,-107.22
 L 53.8278,-106.839 L 53.6955,-106.469 L 53.5277,-106.114 L 53.3259,-105.778 L 53.092,-105.462 L 52.8284,-105.172
 L 52.5376,-104.908 L 52.2223,-104.674 L 51.8856,-104.472 L 51.5307,-104.304 L 51.1611,-104.172 L 50.7803,-104.077
 L 50.3921,-104.019 L 50,-104 z
M 22.55,-53.55 L 22.1579,-53.5693 L 21.7696,-53.6268 L 21.3889,-53.7222 L 21.0193,-53.8545 L 20.6644,-54.0223
 L 20.3277,-54.2241 L 20.0124,-54.4579 L 19.7216,-54.7216 L 19.4579,-55.0124 L 19.2241,-55.3277 L 19.0223,-55.6644
 L 18.8545,-56.0193 L 18.7222,-56.3889 L 18.6268,-56.7696 L 18.5693,-57.1579 L 18.55,-57.55 L 18.55,-90.45
 L 18.5693,-90.8421 L 18.6268,-91.2303 L 18.7222,-91.6111 L 18.8545,-91.9807 L 19.0223,-92.3356 L 19.2241,-92.6723
 L 19.4579,-92.9876 L 19.7216,-93.2784 L 20.0124,-93.542 L 20.3277,-93.7759 L 20.6644,-93.9777 L 21.0193,-94.1455
 L 21.3889,-94.2778 L 21.7696,-94.3731 L 22.1579,-94.4307 L 22.55,-94.45 L 55.45,-94.45 L 55.8421,-94.4307
 L 56.2303,-94.3731 L 56.6111,-94.2778 L 56.9807,-94.1455 L 57.3356,-93.9777 L 57.6723,-93.7759 L 57.9876,-93.542
 L 58.2784,-93.2784 L 58.542,-92.9876 L 58.7759,-92.6723 L 58.9777,-92.3356 L 59.1455,-91.9807 L 59.2778,-91.6111
 L 59.3731,-91.2303 L 59.4307,-90.8421 L 59.45,-90.45 L 59.45,-57.55 L 59.4307,-57.1579 L 59.3731,-56.7696
 L 59.2778,-56.3889 L 59.1455,-56.0193 L 58.9777,-55.6644 L 58.7759,-55.3277 L 58.542,-55.0124 L 58.2784,-54.7216
 L 57.9876,-54.4579 L 57.6723,-54.2241 L 57.3356,-54.0223 L 56.9807,-53.8545 L 56.6111,-53.7222 L 56.2303,-53.6268
 L 55.8421,-53.5693 L 55.45,-53.55 z
M 26,-35.5 L 25.6079,-35.5193 L 25.2196,-35.5769 L 24.8389,-35.6722 L 24.4693,-35.8045 L 24.1144,-35.9723
 L 23.7777,-36.1741 L 23.4624,-36.4079 L 23.1716,-36.6716 L 22.9079,-36.9624 L 22.6741,-37.2777 L 22.4723,-37.6144
 L 22.3045,-37.9693 L 22.1722,-38.3389 L 22.0769,-38.7196 L 22.0193,-39.1079 L 22,-39.5 L 22,-44.5
 L 22.0193,-44.8921 L 22.0769,-45.2803 L 22.1722,-45.6611 L 22.3045,-46.0307 L 22.4723,-46.3856 L 22.6741,-46.7223
 L 22.9079,-47.0376 L 23.1716,-47.3284 L 23.4624,-47.592 L 23.7777,-47.8259 L 24.1144,-48.0277 L 24.4693,-48.1955
 L 24.8389,-48.3278 L 25.2196,-48.4231 L 25.6079,-48.4807 L 26,-48.5 L 26.8801,-48.5 L 26.9079,-48.5376
 L 27.1716,-48.8284 L 27.4624,-49.092 L 27.7777,-49.3259 L 28.1144,-49.5277 L 28.4693,-49.6955 L 28.8389,-49.8278
 L 29.2196,-49.9231 L 29.6079,-49.9807 L 30,-50 L 48,-50 L 48.3921,-49.9807 L 48.7803,-49.9231
 L 49.1611,-49.8278 L 49.5307,-49.6955 L 49.8856,-49.5277 L 50.2223,-49.3259 L 50.5376,-49.092 L 50.8284,-48.8284
 L 51.092,-48.5376 L 51.1199,-48.5 L 52,-48.5 L 52.3921,-48.4807 L 52.7803,-48.4231 L 53.1611,-48.3278
 L 53.5307,-48.1955 L 53.8856,-48.0277 L 54.2223,-47.8259 L 54.5376,-47.592 L 54.8284,-47.3284 L 55.092,-47.0376
 L 55.3259,-46.7223 L 55.5277,-46.3856 L 55.6955,-46.0307 L 55.8278,-45.6611 L 55.9231,-45.2803 L 55.9807,-44.8921
 L 56,-44.5 L 56,-39.5 L 55.9807,-39.1079 L 55.9231,-38.7196 L 55.8278,-38.3389 L 55.6955,-37.9693
 L 55.5277,-37.6144 L 55.3259,-37.2777 L 55.092,-36.9624 L 54.8284,-36.6716 L 54.5376,-36.4079 L 54.2223,-36.1741
 L 53.8856,-35.9723 L 53.5307,-35.8045 L 53.1611,-35.6722 L 52.7803,-35.5769 L 52.3921,-35.5193 L 52,-35.5
 z
M 346.647,9.99277 L 346.793,9.97118 L 346.935,9.93541 L 347.074,9.88582 L 347.207,9.82288 L 347.333,9.74719
 L 347.452,9.65952 L 347.561,9.56065 L 347.66,9.45158 L 347.747,9.33334 L 347.823,9.20709 L 347.886,9.07402
 L 347.935,8.93542 L 347.971,8.79263 L 347.993,8.64702 L 348,8.5 L 348,1.39999 L 347.993,1.25296
 L 347.971,1.10736 L 347.935,0.964569 L 347.886,0.825974 L 347.823,0.692902 L 347.747,0.566635 L 347.66,0.44841
 L 347.561,0.339325 L 347.452,0.240479 L 347.333,0.152786 L 347.207,0.0771179 L 347.074,0.0141754 L 347.034,-0
 L 376.966,-0 L 376.926,0.0141754 L 376.793,0.0771179 L 376.667,0.152786 L 376.548,0.240479 L 376.439,0.339325
 L 376.34,0.44841 L 376.253,0.566635 L 376.177,0.692902 L 376.114,0.825974 L 376.065,0.964569 L 376.029,1.10736
 L 376.007,1.25296 L 376,1.39999 L 376,8.5 L 376.007,8.64702 L 376.029,8.79263 L 376.065,8.93542
 L 376.114,9.07402 L 376.177,9.20709 L 376.253,9.33334 L 376.34,9.45158 L 376.439,9.56065 L 376.548,9.65952
 L 376.667,9.74719 L 376.793,9.82288 L 376.926,9.88582 L 377.065,9.93541 L 377.207,9.97118 L 377.353,9.99277
 L 377.5,10 L 392.5,10 L 392.647,9.99277 L 392.793,9.97118 L 392.935,9.93541 L 393.074,9.88582
 L 393.207,9.82288 L 393.333,9.74719 L 393.452,9.65952 L 393.561,9.56065 L 393.66,9.45158 L 393.747,9.33334
 L 393.823,9.20709 L 393.886,9.07402 L 393.935,8.93542 L 393.971,8.79263 L 393.993,8.64702 L 394,8.5
 L 394,1.39999 L 393.993,1.25296 L 393.971,1.10736 L 393.935,0.964569 L 393.886,0.825974 L 393.823,0.692902
 L 393.747,0.566635 L 393.66,0.44841 L 393.561,0.339325 L 393.452,0.240479 L 393.333,0.152786 L 393.207,0.0771179
 L 393.074,0.0141754 L 393.034,-0 L 408,-0 L 408,-116 L 389,-116 L 325,-19
 L 306,-19 L 306,-0 L 330.966,-0 L 330.926,0.0141754 L 330.793,0.0771179 L 330.667,0.152786
 L 330.548,0.240479 L 330.439,0.339325 L 330.34,0.44841 L 330.253,0.566635 L 330.177,0.692902 L 330.114,0.825974
 L 330.065,0.964569 L 330.029,1.10736 L 330.007,1.25296 L 330,1.39999 L 330,8.5 L 330.007,8.64702
 L 330.029,8.79263 L 330.065,8.93542 L 330.114,9.07402 L 330.177,9.20709 L 330.253,9.33334 L 330.34,9.45158
 L 330.439,9.56065 L 330.548,9.65952 L 330.667,9.74719 L 330.793,9.82288 L 330.926,9.88582 L 331.065,9.93541
 L 331.207,9.97118 L 331.353,9.99277 L 331.5,10 L 346.5,10 z
M 338,-31 L 372,-82 L 372,-31 z
M 395,-18 L 394.706,-18.0144 L 394.415,-18.0576 L 394.129,-18.1292 L 393.852,-18.2283 L 393.586,-18.3542
 L 393.333,-18.5056 L 393.097,-18.681 L 392.879,-18.8787 L 392.681,-19.0968 L 392.506,-19.3333 L 392.354,-19.5858
 L 392.228,-19.8519 L 392.129,-20.1291 L 392.058,-20.4147 L 392.014,-20.7059 L 392,-21 L 392,-45
 L 392.014,-45.294 L 392.058,-45.5853 L 392.129,-45.8708 L 392.228,-46.148 L 392.354,-46.4142 L 392.506,-46.6667
 L 392.681,-46.9032 L 392.879,-47.1213 L 393.097,-47.319 L 393.333,-47.4944 L 393.586,-47.6458 L 393.852,-47.7716
 L 394.129,-47.8708 L 394.415,-47.9424 L 394.706,-47.9855 L 395,-48 L 399,-48 L 399.294,-47.9855
 L 399.585,-47.9424 L 399.871,-47.8708 L 400.148,-47.7716 L 400.414,-47.6458 L 400.667,-47.4944 L 400.903,-47.319
 L 401.121,-47.1213 L 401.319,-46.9032 L 401.494,-46.6667 L 401.646,-46.4142 L 401.772,-46.148 L 401.871,-45.8708
 L 401.942,-45.5853 L 401.986,-45.294 L 402,-45 L 402,-21 L 401.986,-20.7059 L 401.942,-20.4147
 L 401.871,-20.1291 L 401.772,-19.8519 L 401.646,-19.5858 L 401.494,-19.3333 L 401.319,-19.0968 L 401.121,-18.8787
 L 400.903,-18.681 L 400.667,-18.5056 L 400.414,-18.3542 L 400.148,-18.2283 L 399.871,-18.1292 L 399.585,-18.0576
 L 399.294,-18.0144 L 399,-18 z
M 170.196,-0.0096283 L 170.39,-0.0384216 L 170.581,-0.0861053 L 170.765,-0.152237 L 170.943,-0.236145 L 171.111,-0.337051
 L 171.269,-0.453964 L 171.414,-0.585785 L 171.546,-0.731201 L 171.663,-0.888855 L 171.764,-1.05721 L 171.848,-1.23462
 L 171.914,-1.41942 L 171.962,-1.60982 L 171.99,-1.80396 L 172,-2 L 172,-114 L 171.99,-114.196
 L 171.962,-114.39 L 171.914,-114.581 L 171.848,-114.765 L 171.764,-114.943 L 171.663,-115.111 L 171.546,-115.269
 L 171.414,-115.414 L 171.269,-115.546 L 171.111,-115.663 L 170.943,-115.764 L 170.765,-115.848 L 170.581,-115.914
 L 170.39,-115.962 L 170.196,-115.99 L 170,-116 L 96,-116 L 95.804,-115.99 L 95.6098,-115.962
 L 95.4194,-115.914 L 95.2346,-115.848 L 95.0572,-115.764 L 94.8889,-115.663 L 94.7312,-115.546 L 94.5858,-115.414
 L 94.454,-115.269 L 94.3371,-115.111 L 94.2361,-114.943 L 94.1522,-114.765 L 94.0861,-114.581 L 94.0384,-114.39
 L 94.0096,-114.196 L 94,-114 L 94,-2 L 94.0096,-1.80396 L 94.0384,-1.60982 L 94.0861,-1.41942
 L 94.1522,-1.23462 L 94.2361,-1.05721 L 94.3371,-0.888855 L 94.454,-0.731201 L 94.5858,-0.585785 L 94.7312,-0.453964
 L 94.8889,-0.337051 L 95.0572,-0.236145 L 95.2346,-0.152237 L 95.4194,-0.0861053 L 95.6098,-0.0384216 L 95.804,-0.0096283
 L 96,-0 L 170,-0 z
M 122,-104 L 121.608,-104.019 L 121.22,-104.077 L 120.839,-104.172 L 120.469,-104.304 L 120.114,-104.472
 L 119.778,-104.674 L 119.462,-104.908 L 119.172,-105.172 L 118.908,-105.462 L 118.674,-105.778 L 118.472,-106.114
 L 118.304,-106.469 L 118.172,-106.839 L 118.077,-107.22 L 118.019,-107.608 L 118,-108 L 118,-109
 L 118.019,-109.392 L 118.077,-109.78 L 118.172,-110.161 L 118.304,-110.531 L 118.472,-110.886 L 118.674,-111.222
 L 118.908,-111.538 L 119.172,-111.828 L 119.462,-112.092 L 119.778,-112.326 L 120.114,-112.528 L 120.469,-112.696
 L 120.839,-112.828 L 121.22,-112.923 L 121.608,-112.981 L 122,-113 L 144,-113 L 144.392,-112.981
 L 144.78,-112.923 L 145.161,-112.828 L 145.531,-112.696 L 145.886,-112.528 L 146.222,-112.326 L 146.538,-112.092
 L 146.828,-111.828 L 147.092,-111.538 L 147.326,-111.222 L 147.528,-110.886 L 147.696,-110.531 L 147.828,-110.161
 L 147.923,-109.78 L 147.981,-109.392 L 148,-109 L 148,-108 L 147.981,-107.608 L 147.923,-107.22
 L 147.828,-106.839 L 147.696,-106.469 L 147.528,-106.114 L 147.326,-105.778 L 147.092,-105.462 L 146.828,-105.172
 L 146.538,-104.908 L 146.222,-104.674 L 145.886,-104.472 L 145.531,-104.304 L 145.161,-104.172 L 144.78,-104.077
 L 144.392,-104.019 L 144,-104 z
M 116.55,-53.55 L 116.158,-53.5693 L 115.77,-53.6268 L 115.389,-53.7222 L 115.019,-53.8545 L 114.664,-54.0223
 L 114.328,-54.2241 L 114.012,-54.4579 L 113.722,-54.7216 L 113.458,-55.0124 L 113.224,-55.3277 L 113.022,-55.6644
 L 112.854,-56.0193 L 112.722,-56.3889 L 112.627,-56.7696 L 112.569,-57.1579 L 112.55,-57.55 L 112.55,-90.45
 L 112.569,-90.8421 L 112.627,-91.2303 L 112.722,-91.6111 L 112.854,-91.9807 L 113.022,-92.3356 L 113.224,-92.6723
 L 113.458,-92.9876 L 113.722,-93.2784 L 114.012,-93.542 L 114.328,-93.7759 L 114.664,-93.9777 L 115.019,-94.1455
 L 115.389,-94.2778 L 115.77,-94.3731 L 116.158,-94.4307 L 116.55,-94.45 L 149.45,-94.45 L 149.842,-94.4307
 L 150.23,-94.3731 L 150.611,-94.2778 L 150.981,-94.1455 L 151.336,-93.9777 L 151.672,-93.7759 L 151.988,-93.542
 L 152.278,-93.2784 L 152.542,-92.9876 L 152.776,-92.6723 L 152.978,-92.3356 L 153.146,-91.9807 L 153.278,-91.6111
 L 153.373,-91.2303 L 153.431,-90.8421 L 153.45,-90.45 L 153.45,-57.55 L 153.431,-57.1579 L 153.373,-56.7696
 L 153.278,-56.3889 L 153.146,-56.0193 L 152.978,-55.6644 L 152.776,-55.3277 L 152.542,-55.0124 L 152.278,-54.7216
 L 151.988,-54.4579 L 151.672,-54.2241 L 151.336,-54.0223 L 150.981,-53.8545 L 150.611,-53.7222 L 150.23,-53.6268
 L 149.842,-53.5693 L 149.45,-53.55 z
M 120,-35.5 L 119.608,-35.5193 L 119.22,-35.5769 L 118.839,-35.6722 L 118.469,-35.8045 L 118.114,-35.9723
 L 117.778,-36.1741 L 117.462,-36.4079 L 117.172,-36.6716 L 116.908,-36.9624 L 116.674,-37.2777 L 116.472,-37.6144
 L 116.304,-37.9693 L 116.172,-38.3389 L 116.077,-38.7196 L 116.019,-39.1079 L 116,-39.5 L 116,-44.5
 L 116.019,-44.8921 L 116.077,-45.2803 L 116.172,-45.6611 L 116.304,-46.0307 L 116.472,-46.3856 L 116.674,-46.7223
 L 116.908,-47.0376 L 117.172,-47.3284 L 117.462,-47.592 L 117.778,-47.8259 L 118.114,-48.0277 L 118.469,-48.1955
 L 118.839,-48.3278 L 119.22,-48.4231 L 119.608,-48.4807 L 120,-48.5 L 120.88,-48.5 L 120.908,-48.5376
 L 121.172,-48.8284 L 121.462,-49.092 L 121.778,-49.3259 L 122.114,-49.5277 L 122.469,-49.6955 L 122.839,-49.8278
 L 123.22,-49.9231 L 123.608,-49.9807 L 124,-50 L 142,-50 L 142.392,-49.9807 L 142.78,-49.9231
 L 143.161,-49.8278 L 143.531,-49.6955 L 143.886,-49.5277 L 144.222,-49.3259 L 144.538,-49.092 L 144.828,-48.8284
 L 145.092,-48.5376 L 145.12,-48.5 L 146,-48.5 L 146.392,-48.4807 L 146.78,-48.4231 L 147.161,-48.3278
 L 147.531,-48.1955 L 147.886,-48.0277 L 148.222,-47.8259 L 148.538,-47.592 L 148.828,-47.3284 L 149.092,-47.0376
 L 149.326,-46.7223 L 149.528,-46.3856 L 149.696,-46.0307 L 149.828,-45.6611 L 149.923,-45.2803 L 149.981,-44.8921
 L 150,-44.5 L 150,-39.5 L 149.981,-39.1079 L 149.923,-38.7196 L 149.828,-38.3389 L 149.696,-37.9693
 L 149.528,-37.6144 L 149.326,-37.2777 L 149.092,-36.9624 L 148.828,-36.6716 L 148.538,-36.4079 L 148.222,-36.1741
 L 147.886,-35.9723 L 147.531,-35.8045 L 147.161,-35.6722 L 146.78,-35.5769 L 146.392,-35.5193 L 146,-35.5
 z
" stroke="black" fill="lightgray" stroke-width="0.5"/>
</svg>
