<?xml version="1.0" encoding="UTF-8"?>
<svg xmlns="http://www.w3.org/2000/svg" width="210mm" height="297mm" viewBox="0 0 210 297">
  <style>
    .cut { fill: none; stroke: #000; stroke-width: 0.35; }
    .hole { fill: none; stroke: #000; stroke-width: 0.35; }
    .guide { fill: none; stroke: #000; stroke-width: 0.25; stroke-dasharray: 2 1.5; }
    .label { font-family: Arial, sans-serif; fill: #000; font-weight: 700; }
    .note { font-family: Arial, sans-serif; fill: #000; }
    .tiny { font-family: Arial, sans-serif; fill: #000; }
  </style>
  <rect x="0" y="0" width="210" height="297" fill="white"/>
  <rect class="guide" x="5" y="5" width="200" height="287"/>
  <text class="label" x="8" y="12" font-size="4.5">A4 03 - 바닥판 3장</text>
  <text class="note" x="8" y="18" font-size="3.1">인쇄 설정: A4, 실제 크기 100%, 페이지 맞춤/축소 금지. 아래 50mm 선을 자로 확인.</text>
  <line class="cut" x1="8" y1="24" x2="58" y2="24"/>
  <text class="note" x="8" y="28" font-size="3">50mm scale check</text>
  <path class="cut" d="M 21 42 H 93 Q 96 42 96 45 V 141 Q 96 144 93 144 H 21 Q 18 144 18 141 V 45 Q 18 42 21 42 Z"/>
<path class="hole" d="M 27.5 66 H 27.95 Q 29.45 66 29.45 67.5 V 82.95 Q 29.45 84.45 27.95 84.45 H 27.5 Q 26 84.45 26 82.95 V 67.5 Q 26 66 27.5 66 Z"/>
<path class="hole" d="M 27.5 112 H 27.95 Q 29.45 112 29.45 113.5 V 128.95 Q 29.45 130.45 27.95 130.45 H 27.5 Q 26 130.45 26 128.95 V 113.5 Q 26 112 27.5 112 Z"/>
<path class="hole" d="M 86.05 66 H 86.5 Q 88 66 88 67.5 V 82.95 Q 88 84.45 86.5 84.45 H 86.05 Q 84.55 84.45 84.55 82.95 V 67.5 Q 84.55 66 86.05 66 Z"/>
<path class="hole" d="M 86.05 112 H 86.5 Q 88 112 88 113.5 V 128.95 Q 88 130.45 86.5 130.45 H 86.05 Q 84.55 130.45 84.55 128.95 V 113.5 Q 84.55 112 86.05 112 Z"/>
<path class="hole" d="M 55 126 H 59 Q 62 126 62 129 V 139 Q 62 142 59 142 H 55 Q 52 142 52 139 V 129 Q 52 126 55 126 Z"/>
<text class="label" x="18" y="39" font-size="4">바닥판 BASE 1/3</text>
<path class="cut" d="M 117 42 H 189 Q 192 42 192 45 V 141 Q 192 144 189 144 H 117 Q 114 144 114 141 V 45 Q 114 42 117 42 Z"/>
<path class="hole" d="M 123.5 66 H 123.95 Q 125.45 66 125.45 67.5 V 82.95 Q 125.45 84.45 123.95 84.45 H 123.5 Q 122 84.45 122 82.95 V 67.5 Q 122 66 123.5 66 Z"/>
<path class="hole" d="M 123.5 112 H 123.95 Q 125.45 112 125.45 113.5 V 128.95 Q 125.45 130.45 123.95 130.45 H 123.5 Q 122 130.45 122 128.95 V 113.5 Q 122 112 123.5 112 Z"/>
<path class="hole" d="M 182.05 66 H 182.5 Q 184 66 184 67.5 V 82.95 Q 184 84.45 182.5 84.45 H 182.05 Q 180.55 84.45 180.55 82.95 V 67.5 Q 180.55 66 182.05 66 Z"/>
<path class="hole" d="M 182.05 112 H 182.5 Q 184 112 184 113.5 V 128.95 Q 184 130.45 182.5 130.45 H 182.05 Q 180.55 130.45 180.55 128.95 V 113.5 Q 180.55 112 182.05 112 Z"/>
<path class="hole" d="M 151 126 H 155 Q 158 126 158 129 V 139 Q 158 142 155 142 H 151 Q 148 142 148 139 V 129 Q 148 126 151 126 Z"/>
<text class="label" x="114" y="39" font-size="4">바닥판 BASE 2/3</text>
<path class="cut" d="M 21 164 H 93 Q 96 164 96 167 V 263 Q 96 266 93 266 H 21 Q 18 266 18 263 V 167 Q 18 164 21 164 Z"/>
<path class="hole" d="M 27.5 188 H 27.95 Q 29.45 188 29.45 189.5 V 204.95 Q 29.45 206.45 27.95 206.45 H 27.5 Q 26 206.45 26 204.95 V 189.5 Q 26 188 27.5 188 Z"/>
<path class="hole" d="M 27.5 234 H 27.95 Q 29.45 234 29.45 235.5 V 250.95 Q 29.45 252.45 27.95 252.45 H 27.5 Q 26 252.45 26 250.95 V 235.5 Q 26 234 27.5 234 Z"/>
<path class="hole" d="M 86.05 188 H 86.5 Q 88 188 88 189.5 V 204.95 Q 88 206.45 86.5 206.45 H 86.05 Q 84.55 206.45 84.55 204.95 V 189.5 Q 84.55 188 86.05 188 Z"/>
<path class="hole" d="M 86.05 234 H 86.5 Q 88 234 88 235.5 V 250.95 Q 88 252.45 86.5 252.45 H 86.05 Q 84.55 252.45 84.55 250.95 V 235.5 Q 84.55 234 86.05 234 Z"/>
<path class="hole" d="M 55 248 H 59 Q 62 248 62 251 V 261 Q 62 264 59 264 H 55 Q 52 264 52 261 V 251 Q 52 248 55 248 Z"/>
<text class="label" x="18" y="161" font-size="4">바닥판 BASE 3/3</text>
<text class="note" x="114" y="180" font-size="4">바닥판은 총 3장입니다.</text>
<text class="note" x="114" y="192" font-size="4">세 장을 정확히 맞춰 붙여야 도크가 흔들리지 않습니다.</text>
</svg>